<?xml version="1.0" standalone="no"?><!DOCTYPE svg PUBLIC "-//W3C//DTD SVG 1.1//EN" "http://www.w3.org/Graphics/SVG/1.1/DTD/svg11.dtd"><svg t="1767929320839" class="icon" viewBox="0 0 1024 1024" version="1.1" xmlns="http://www.w3.org/2000/svg" p-id="2653" xmlns:xlink="http://www.w3.org/1999/xlink" width="200" height="200"><path d="M512 896a384 384 0 1 0-159.936-34.752V581.248L352 576V384A160 160 0 0 1 512 224h15.424a144 144 0 0 1 110.464 236.416A160 160 0 0 1 576 768h-32a191.296 191.296 0 0 1-127.936-48.832v192.832H416v37.696A448 448 0 1 1 512 960c-10.752 0-21.44-0.384-32-1.152V894.72c10.56 0.832 21.248 1.28 32 1.28z m15.424-608H512A96 96 0 0 0 416 384v36.544h0.064v159.744A128 128 0 0 0 544 704H576a96 96 0 0 0 0-192H480.064V448h47.36a80 80 0 1 0 0-160z" fill="#1296db" p-id="2654"></path></svg>